<svg width="101" height="101" viewBox="0 0 101 101" fill="none" xmlns="http://www.w3.org/2000/svg">
<path d="M79.92 87.0597L55.42 79.9997L79.92 72.9397C80.2866 72.8167 80.5915 72.5569 80.7712 72.2146C80.9508 71.8722 80.9914 71.4737 80.8843 71.1022C80.7772 70.7307 80.5308 70.4149 80.1965 70.2206C79.8622 70.0264 79.4658 69.9687 79.09 70.0597L50 78.4397L20.92 70.0597C20.5443 69.9687 20.1479 70.0264 19.8136 70.2206C19.4793 70.4149 19.2329 70.7307 19.1258 71.1022C19.0187 71.4737 19.0592 71.8722 19.2389 72.2146C19.4186 72.5569 19.7235 72.8167 20.09 72.9397L44.58 79.9997L20.08 87.0597C19.7135 87.1827 19.4086 87.4424 19.2289 87.7848C19.0492 88.1272 19.0087 88.5257 19.1158 88.8972C19.2229 89.2687 19.4693 89.5845 19.8036 89.7788C20.1379 89.973 20.5343 90.0307 20.91 89.9397L50 81.5597L79.08 89.9397C79.4558 90.0307 79.8522 89.973 80.1865 89.7788C80.5208 89.5845 80.7672 89.2687 80.8743 88.8972C80.9814 88.5257 80.9408 88.1272 80.7612 87.7848C80.5815 87.4424 80.2766 87.1827 79.91 87.0597H79.92Z" fill="#ffffff" stroke="#ffffff" stroke-width="2.2" id="id_101"></path>
<path d="M33.9201 69.8301C34.0948 69.9325 34.2885 69.9985 34.4895 70.024C34.6904 70.0495 34.8944 70.0341 35.0892 69.9787C35.2841 69.9232 35.4656 69.8289 35.623 69.7014C35.7803 69.5738 35.9103 69.4158 36.0049 69.2367C36.0995 69.0576 36.1569 68.8612 36.1735 68.6593C36.1902 68.4574 36.1658 68.2543 36.1018 68.0621C36.0378 67.8699 35.9355 67.6927 35.8012 67.5411C35.6668 67.3895 35.5032 67.2667 35.3201 67.1801C31.7025 65.001 28.7125 61.9204 26.6424 58.2394C24.5723 54.5584 23.493 50.4032 23.5101 46.1801C23.5101 30.4201 34.8401 14.7701 50.4301 8.28007C47.3001 14.1201 42.1101 25.6901 45.5401 32.9201C47.1701 36.3501 50.4401 38.3901 55.2601 38.9201C56.7483 39.1735 58.2755 39.0689 59.7153 38.615C61.1551 38.1612 62.4662 37.3711 63.5401 36.3101C67.1701 32.6801 67.9601 26.1101 68.0201 21.4701C71.8101 27.4901 77.8201 39.0001 76.2401 50.0001C75.2401 56.8801 71.4401 62.6801 64.8901 67.2301C64.7172 67.3374 64.5679 67.4788 64.4513 67.6457C64.3348 67.8126 64.2534 68.0014 64.2122 68.2008C64.171 68.4001 64.1707 68.6057 64.2115 68.8051C64.2523 69.0046 64.3333 69.1936 64.4494 69.3607C64.5656 69.5279 64.7146 69.6696 64.8873 69.7773C65.06 69.885 65.2528 69.9565 65.454 69.9873C65.6552 70.0181 65.8606 70.0076 66.0576 69.9565C66.2547 69.9054 66.4392 69.8148 66.6001 69.6901C73.8601 64.6901 78.1001 58.1701 79.2101 50.4201C81.6601 33.3501 68.0001 16.2401 67.4501 15.5201C67.2461 15.2652 66.9646 15.0838 66.6481 15.0034C66.3317 14.9231 65.9977 14.9481 65.6968 15.0748C65.3959 15.2015 65.1446 15.4229 64.981 15.7054C64.8173 15.9879 64.7503 16.316 64.7901 16.6401C65.2201 20.1701 65.4401 30.2101 61.4001 34.2601C60.6433 34.9933 59.7215 35.5341 58.7122 35.8369C57.7028 36.1397 56.6355 36.1957 55.6001 36.0001C51.8201 35.5501 49.4101 34.1301 48.2401 31.6501C45.0001 24.7801 52.0001 11.0001 55.0001 6.30007C55.1658 6.04091 55.2477 5.73708 55.2349 5.42976C55.2221 5.12244 55.1152 4.82649 54.9285 4.582C54.7419 4.33751 54.4846 4.15631 54.1915 4.06295C53.8985 3.96959 53.5838 3.96859 53.2901 4.06007C34.3101 9.90007 20.5001 27.6201 20.5001 46.2001C20.4576 50.9718 21.6763 55.6701 24.0328 59.8195C26.3894 63.969 29.8002 67.4223 33.9201 69.8301V69.8301Z" fill="#ffffff" stroke="#ffffff" stroke-width="2.2" id="id_102"></path>
<path d="M49.65 51.87C49.8506 51.9582 50.068 52.0014 50.2871 51.9965C50.5061 51.9917 50.7215 51.9389 50.9179 51.8419C51.1144 51.7449 51.2872 51.606 51.4243 51.4351C51.5613 51.2641 51.6592 51.0652 51.7111 50.8523C51.7631 50.6395 51.7677 50.4178 51.7248 50.203C51.6818 49.9881 51.5923 49.7853 51.4626 49.6087C51.3329 49.4321 51.166 49.2861 50.9738 49.181C50.7816 49.0758 50.5687 49.014 50.35 49C35.14 45.26 37.49 30.39 37.6 29.76C37.6561 29.4255 37.5973 29.0819 37.433 28.7851C37.2687 28.4884 37.0087 28.2561 36.6954 28.1262C36.3821 27.9962 36.0341 27.9763 35.708 28.0696C35.3819 28.1629 35.0971 28.364 34.9 28.64C34.72 28.89 30.5 35 30.5 45.89C30.5 58.53 41.21 65.48 41.67 65.77C42.0052 65.9704 42.4054 66.0322 42.7855 65.9421C43.1656 65.8521 43.4955 65.6174 43.7052 65.2878C43.9149 64.9583 43.9878 64.56 43.9084 64.1776C43.829 63.7952 43.6035 63.4588 43.28 63.24C43.18 63.18 33.5 56.91 33.5 45.9C33.4835 42.6787 33.9177 39.471 34.79 36.37C35.74 42 39.07 49.3 49.65 51.87Z" fill="#ffffff" stroke="#ffffff" stroke-width="2.2" id="id_103"></path>
</svg>